# xmcd
#
# Track frame offsets:
#	150
#	16084
#	29961
#	44208
#	59356
#	73576
#	88979
#	107708
#	123717
#	148684
#
# Disc length: 2165 seconds
#
# Revision: 0
# Processed by: cddbd v1.5.2PL0 Copyright (c) Steve Scherf et al.
# Submitted via: FairStars CD Ripper 1.90
#
DISCID=9d08730a
DTITLE=Abney Park - New Nostalgics
DYEAR=2019
DGENRE=Swing
TTITLE0=Come Take a Trip in My Airship
TTITLE1=Strip Poker
TTITLE2=Here Comes the Bogey Man (Hush, Hush, Hush)
TTITLE3=Brother Can You Spare a Dime
TTITLE4=A Pocket Full of Dreams
TTITLE5=Take Me Up in Your Airship Willie
TTITLE6=Minnie the Moocher
TTITLE7=Bei Mie Bist du Schoen (Part 1)
TTITLE8=Bei Mie Bist du Schoen (Part 2)
TTITLE9=Strip Poker (Acoustic)
EXTD=
EXTT0=
EXTT1=
EXTT2=
EXTT3=
EXTT4=
EXTT5=
EXTT6=
EXTT7=
EXTT8=
EXTT9=
PLAYORDER=
